<?xml version="1.0" standalone="no"?><!DOCTYPE svg PUBLIC "-//W3C//DTD SVG 1.1//EN" "http://www.w3.org/Graphics/SVG/1.1/DTD/svg11.dtd"><svg t="1660615747238" class="icon" viewBox="0 0 1024 1024" version="1.1" xmlns="http://www.w3.org/2000/svg" p-id="11089" xmlns:xlink="http://www.w3.org/1999/xlink" width="200" height="200"><defs><style type="text/css"></style></defs><path d="M512 0C228.693 0 0 228.693 0 512s228.693 512 512 512 512-228.693 512-512S795.307 0 512 0zM197.973 431.787v-3.414-1.707-1.707-1.707-1.707-1.707-1.707-5.12-1.707-1.707-5.121-3.414-3.414-1.707-1.707-1.707-1.707-1.707l1.707-1.707v-1.707l1.707-1.707 104.107-100.693c17.067-17.067 46.08-17.067 63.147 0s17.067 44.373 0 61.44l-29.013 27.307h431.787c23.893 0 44.373 18.773 44.373 42.667s-20.48 42.667-44.373 42.667H240.642h-5.12-1.707-1.707-13.654-1.707-3.414-1.707l-1.707-1.707h-1.707l-1.707-1.707-1.707-1.707v-1.707l-1.707-1.707v-3.414-1.707-1.707-5.12l-5.12-5.12c0 1.707 0 1.707 0 0z m629.76 174.08V629.764l-1.707 1.707v1.707l-1.707 1.707-1.707 1.707-104.107 100.693c-17.067 17.067-46.08 17.067-63.147 0s-17.067-44.373 0-61.44l27.307-27.307H244.052c-23.893 0-44.373-18.773-44.373-42.667s20.48-42.667 44.373-42.667H810.67l1.707 1.707h1.707l3.413 3.413v1.707l1.707 1.707V599.049c8.533 5.12 8.533 6.827 8.533 6.827z" fill="#888888" p-id="11090"></path></svg>